<svg id="SvgjsSvg1051" width="288" height="288" xmlns="http://www.w3.org/2000/svg" version="1.1" xmlns:xlink="http://www.w3.org/1999/xlink" xmlns:svgjs="http://svgjs.com/svgjs"><defs id="SvgjsDefs1052"></defs><g id="SvgjsG1053"><svg xmlns="http://www.w3.org/2000/svg" viewBox="0 0 24 24" width="288" height="288"><g data-name="VK Logo" fill="#ffffff" class="color000 svgShape"><g data-name="&amp;lt;Group&amp;gt;" fill="#ffffff" class="color000 svgShape"><path fill="none" stroke="#ffffff" stroke-linecap="round" stroke-linejoin="round" d="M.5,6.5h4s2.31,6,4.5,6c.41,0,.5-.75.5-3s-.59-3-1-3c0-.41.78-1,3-1s2,.06,2,1v4c0,1.16.38,2,1,2s4.22-4.44,4.5-6h4.5c0,.53-4,6.06-4,6.5s4,4.5,4,5-.87.5-2,.5H19c-.59,0-3.16-3-4.5-3s-.28,3-1.5,3H11C7.28,18.5,1,9.41.5,6.5Z" data-name="&amp;lt;Path&amp;gt;" class="colorStroke303c42 svgStroke"></path></g></g></svg></g></svg>